<?xml version="1.0" encoding="utf-8"?>
<!-- Generator: Adobe Illustrator 27.0.0, SVG Export Plug-In . SVG Version: 6.00 Build 0)  -->
<svg version="1.1" id="Layer_1" xmlns="http://www.w3.org/2000/svg" xmlns:xlink="http://www.w3.org/1999/xlink" x="0px" y="0px"
	 viewBox="0 0 1200 1200" style="enable-background:new 0 0 1200 1200;" xml:space="preserve">
<style type="text/css">
	.st0{fill:#272438;}
	.st1{fill:#B776AC;}
	.st2{fill:#FFFFFF;}
	.st3{fill:#F5F5F5;}
	.st4{fill:#D9D9D9;}
	.st5{fill:#E8D1D0;}
	.st6{fill:#E5E5E5;}
	.st7{fill:#F3DAD9;}
	.st8{fill:#FFD9DE;}
	.st9{fill:none;}
	.st10{fill:#F3AF9D;}
	.st11{fill:#FFF5E6;}
	.st12{fill:#FFB4AA;}
	.st13{fill:#975E90;}
	.st14{fill:#C39BAA;}
	.st15{fill:#B9879B;}
	.st16{fill:#F096AF;}
	.st17{display:none;}
	.st18{display:inline;fill:none;stroke:#000000;stroke-miterlimit:10;}
	.st19{display:inline;}
</style>
<image style="display:none;overflow:visible;enable-background:new    ;" width="951" height="1284" xlink:href="6145B64E.jpg"  transform="matrix(0.2183 -2.285842e-03 2.285842e-03 0.2183 523.7079 107.5946)">
</image>
<g id="illustration_1_">
	<path class="st0" d="M647.9,923.2V970c0,48.8,55.4,50.3,55.4,4.5v-51.8L647.9,923.2z"/>
	<path class="st0" d="M544.6,923.2V970c0,48.8,55.4,50.3,55.4,4.5v-51.8L544.6,923.2z"/>
	<path class="st1" d="M518.9,549c0,66.4,0,148.9,0,228.2c0,55.8,0,110,0,155.8c56.6,0,51.8,0,92.7,0c0-46.8,0-101.4,0-154.5
		c0-75.9,0-148.8,0-191.6c5.9,0,20.5,0,25.9,0c0,41.3,0,115.8,0,191.6c0,54.9,0,110.4,0,154.5c45,0,35.6,0,92.7,0
		c0-43,0-97.5,0-154.5c0-79.5,0-164,0-229.5H518.9z"/>
	<path class="st2" d="M660.3,965.8h30.6c0,0,0,21.3-15.3,21.3C660.1,987.1,660.3,965.8,660.3,965.8z"/>
	<path class="st2" d="M557,965.8h30.6c0,0,0,21.3-15.3,21.3C556.8,987.1,557,965.8,557,965.8z"/>
	<g>
		
			<rect x="545.4" y="248.1" transform="matrix(0.1141 -0.9935 0.9935 0.1141 241.7999 779.2333)" class="st3" width="24.9" height="11.8"/>
		
			<rect x="540.3" y="245.8" transform="matrix(0.7071 -0.7071 0.7071 0.7071 -15.6829 463.4404)" class="st4" width="22.5" height="9.8"/>
		<circle class="st5" cx="559.6" cy="233.2" r="17.8"/>
		
			<rect x="683.2" y="247.1" transform="matrix(0.9915 -0.1298 0.1298 0.9915 -27.4662 91.3932)" class="st3" width="8.4" height="18.6"/>
		<polygon class="st6" points="684.7,242.7 691.1,238.4 703.4,256.6 697,261 		"/>
		<circle class="st5" cx="688.4" cy="231" r="16.7"/>
		<circle id="jawMid_2_" cx="625.5" cy="284.1" r="0.8"/>
		<circle id="rightJaw7_2_" cx="614.6" cy="282.1" r="0.8"/>
		<circle id="leftJaw7_2_" cx="636.4" cy="282.1" r="0.8"/>
		<circle id="rightJaw3_2_" cx="580.3" cy="226.6" r="0.8"/>
		<circle id="rightJaw2_2_" cx="580.3" cy="217.1" r="0.8"/>
		<circle id="leftJaw3_2_" cx="668.5" cy="227" r="0.8"/>
		<circle id="leftJaw2_2_" cx="668.5" cy="217.4" r="0.8"/>
		<circle id="topMid_2_" cx="624.7" cy="166" r="0.8"/>
		<circle id="leftTop0_2_" cx="642.4" cy="168.5" r="0.8"/>
		<circle id="rightTop0_2_" cx="606.8" cy="168.5" r="0.8"/>
		<path class="st7" d="M622.3,164c4.3-3.9,5.1-11.1,1.7-15.8c2.4-0.6,5.1,1,6,3.3s0.3,5.1-1.2,7.1s-3.7,3.4-6,4.3"/>
	</g>
	<path class="st8" d="M501.4,630.2c-1.3-73.2,11.8-194.9,32.4-233.4c12.6-23.6,28-40.7,44.8-51.6c14.7-9.5,30.5-14.1,46.2-13.9
		c15.6,0.2,31.3,5.2,45.9,14.8c16.5,10.9,31.8,27.8,44.3,50.7c21.3,38.8,34.8,160.8,33.2,233.4H501.4L501.4,630.2z"/>
	<line class="st9" x1="741.4" y1="564.8" x2="508.6" y2="564.8"/>
	<ellipse class="st2" cx="625.4" cy="351.3" rx="22" ry="16.3"/>
	<path class="st10" d="M616.2,277.5"/>
	<path class="st11" d="M614.2,265.7h20.9c0,0,4.3,61.7,5.7,85.2c-2.1,9.7-9.1,11.3-15.5,11.1c-8.2-0.2-15.9-4.7-17.1-12.5
		L614.2,265.7z"/>
	<path class="st12" d="M614.2,265.7h20.9c1.9,19-21.7,83.8-26.9,83.8L614.2,265.7z"/>
	<g>
		<ellipse class="st11" cx="626.4" cy="229.2" rx="56.4" ry="57.6"/>
		<circle id="jawMid_1_" cx="625.5" cy="284.1" r="0.8"/>
		<circle id="rightJaw7_1_" cx="614.6" cy="282.1" r="0.8"/>
		<circle id="leftJaw7_1_" cx="636.4" cy="282.1" r="0.8"/>
		<circle id="rightJaw3_1_" cx="580.3" cy="226.6" r="0.8"/>
		<circle id="rightJaw2_1_" cx="580.3" cy="217.1" r="0.8"/>
		<circle id="leftJaw3_1_" cx="668.5" cy="227" r="0.8"/>
		<circle id="leftJaw2_1_" cx="668.5" cy="217.4" r="0.8"/>
		<circle id="topMid_3_" cx="624.7" cy="166" r="0.8"/>
		<circle id="leftTop0_3_" cx="642.4" cy="168.5" r="0.8"/>
		<circle id="rightTop0_3_" cx="606.8" cy="168.5" r="0.8"/>
	</g>
	<g>
		<path class="st13" d="M578.7,221.9c3.1-6.1,13.1-6.7,21.1-6.1c0.7,2.3,0.7,3.8-0.1,3.7C596.6,219.4,589.5,215.6,578.7,221.9z"/>
		<circle id="rightBrow1_1_" cx="592.5" cy="203.2" r="0.8"/>
		<circle id="rightBrow4_1_" cx="615.8" cy="206.2" r="0.8"/>
		<circle id="rightBrow3_1_" cx="606" cy="202.2" r="0.8"/>
		<circle id="rightBrow0_1_" cx="588.5" cy="206.9" r="0.8"/>
		<circle id="rightBrow2_1_" cx="598.7" cy="202.2" r="0.8"/>
	</g>
	<g>
		<path class="st13" d="M666.7,220.8c-7.5-3.4-8.8-2.2-19-1c-0.3-0.8-0.5-1.7-0.1-4c6,0.5,16-2.3,21.1,6.1
			C668,221.5,667.4,221.1,666.7,220.8z"/>
		<circle id="leftBrow1_1_" cx="656.2" cy="203.6" r="0.8"/>
		<circle id="leftBrow4_1_" cx="632.6" cy="205.7" r="0.8"/>
		<circle id="leftBrow3_1_" cx="642.6" cy="202.5" r="0.8"/>
		<circle id="leftBrow0_1_" cx="660.2" cy="206.5" r="0.8"/>
		<circle id="leftBrow2_1_" cx="649.9" cy="202.1" r="0.8"/>
	</g>
	<g>
		<ellipse class="st14" cx="590.1" cy="247.5" rx="7.8" ry="6.2"/>
		<ellipse class="st13" cx="593" cy="231.6" rx="3.6" ry="5.8"/>
		<circle id="rightEye0_1_" cx="594.7" cy="215.1" r="0.8"/>
		<circle id="rightEye1_1_" cx="599.9" cy="211.4" r="0.8"/>
		<circle id="rightEye5_1_" cx="599.9" cy="217.4" r="0.8"/>
		<circle id="rightEye2_1_" cx="606.2" cy="211.4" r="0.8"/>
		<circle id="rightEye3_1_" cx="611.4" cy="215.6" r="0.8"/>
		<circle id="rightEye4_1_" cx="606.2" cy="216.6" r="0.8"/>
	</g>
	<g>
		<ellipse class="st13" cx="654.8" cy="231.6" rx="3.6" ry="5.8"/>
		<ellipse class="st14" cx="659.2" cy="247.5" rx="7.8" ry="6.2"/>
		<circle id="leftEye0_1_" cx="654.3" cy="215.1" r="0.8"/>
		<circle id="leftEye1_1_" cx="649.1" cy="211.4" r="0.8"/>
		<circle id="leftEye5_1_" cx="649.1" cy="217.4" r="0.8"/>
		<circle id="leftEye2_1_" cx="642.8" cy="211.4" r="0.8"/>
		<circle id="leftEye3_1_" cx="637.6" cy="215.6" r="0.8"/>
		<circle id="leftEye4_1_" cx="642.8" cy="216.6" r="0.8"/>
	</g>
	<g>
		<path id="rightMiddleLip_2_" d="M610.8,254.6c0.4,0,0.8,0.4,0.8,0.8s-0.4,0.8-0.8,0.8s-0.8-0.4-0.8-0.8S610.4,254.6,610.8,254.6z"
			/>
		<circle id="upperLipBottomMid_1_" cx="624.5" cy="255.1" r="0.8"/>
		<circle id="rightUpperLipBottom1_1_" cx="620.6" cy="254.6" r="0.8"/>
		<path id="leftMiddleLip_2_" d="M638.2,254.6c0.4,0,0.8,0.4,0.8,0.8s-0.4,0.8-0.8,0.8s-0.8-0.4-0.8-0.8S637.8,254.6,638.2,254.6z"
			/>
		<circle id="leftUpperLipBottom1_1_" cx="628.4" cy="254.6" r="0.8"/>
		<path class="st15" d="M611.6,255.4c0,0,7.4-0.2,12.9-0.2s13.9-0.1,13.9-0.1s-6.1,4-13.9,4C616.6,259.1,611.6,255.4,611.6,255.4z"
			/>
		<circle id="lowerLipTopMid_2_" cx="624.5" cy="258.1" r="0.8"/>
		<circle id="rightLowerLipTop0_2_" cx="620.6" cy="257.4" r="0.8"/>
		<circle id="leftLowerLipTop0_2_" cx="628.4" cy="257.4" r="0.8"/>
	</g>
	<g>
		<path class="st7" d="M625.9,159c-48.8,0-65.6,37.6-65.6,78.6c0,27.6,11.4,41.4,17.1,41.9c0,0-1-0.6-1.7-2.3
			c-0.7-1.6-0.6-3.2-0.6-3.2s3.4,3.5,4.8,4.4c1.5,1,6.5,3,6.5,3s-8.4-22.6-8.5-37.3c-0.1-12.6,2.5-24.8,2.5-24.8s8.3-5.3,12.3-9.9
			c3.5-4,8-12.2,8-12.2s1.7,5.1,2.5,6.6c1.6,3,7.1,11.1,7.1,11.1s-0.5-2.5-0.6-3.2s-0.2-2.2-0.2-2.2s2,2.5,2.5,2.9
			c1,0.9,3.3,2.4,3.3,2.4l12.7-0.2c0,0-0.7-0.7-1.2-2.3c-0.6-1.5-0.7-2.7-0.7-2.7s1.7,1.9,2.4,2.9c0.5,0.7,1.8,2.1,1.8,2.1l18.6,0.4
			c0,0-1.9-2.4-3.2-5.5c-1.1-2.6-2.9-7.5-2.9-7.5s4.4,4.5,8.3,7.3c5.3,3.8,12.7,9.5,12.7,9.5s3.7,5.3,3.7,28.7
			c0,23.8-14.2,38.4-14.2,38.4c-0.3,0.2,2.4-0.6,4.1-1.5c3.1-1.7,4.3-2.7,4.3-2.7l-0.5,3.3c0,0,4.2-1.7,6.5-3.6
			c3.1-2.5,5.4-6.1,5.4-6.1s-0.1,1.2-0.2,3.4c-0.1,1.5-0.8,3.1-0.8,3.1s16.2-21.3,16.2-46.9C688.4,205.7,677.8,159,625.9,159z"/>
		<circle id="jawMid_3_" cx="625.5" cy="284.1" r="0.8"/>
		<circle id="rightJaw7_3_" cx="614.6" cy="282.1" r="0.8"/>
		<circle id="leftJaw7_3_" cx="636.4" cy="282.1" r="0.8"/>
		<circle id="rightJaw3_3_" cx="580.3" cy="226.6" r="0.8"/>
		<circle id="rightJaw2_3_" cx="580.3" cy="217.1" r="0.8"/>
		<circle id="leftJaw3_3_" cx="668.5" cy="227" r="0.8"/>
		<circle id="leftJaw2_3_" cx="668.5" cy="217.4" r="0.8"/>
		<circle id="topMid_1_" cx="624.7" cy="166" r="0.8"/>
		<circle id="leftTop0_1_" cx="642.4" cy="168.5" r="0.8"/>
		<circle id="rightTop0_1_" cx="606.8" cy="168.5" r="0.8"/>
	</g>
	<path class="st12" d="M968.4,381.4l17-6.8c0,0,6.1,5.5,13,11.2s-4.7,18.4-15.3,10.6C972.4,388.6,968.4,381.4,968.4,381.4z"/>
	<path class="st12" d="M280.2,381.4l-17-6.8c0,0-6.1,5.5-13,11.2s4.7,18.4,15.3,10.6C276.2,388.6,280.2,381.4,280.2,381.4z"/>
	<path class="st16" d="M410.4,322.3l3,56.8c58.9,0.3,93.5-2.3,119.3,17.7l48.7-50.2C527.1,319.9,466.4,318.9,410.4,322.3z"/>
	<path class="st16" d="M670.3,345.6l43.3,53.2c27-16.2,67.7-16.3,126.6-16.7v-56.8C784.2,321.9,741,314.9,670.3,345.6z"/>
	<path class="st11" d="M415.6,328.9c-47.7,2.7-123.1,8.9-160.2,14.2c-37.1,5.3-40.1,40.1,5.3,39.5s95.2-3.5,159.7-12.1L415.6,328.9z
		"/>
	<path class="st11" d="M834.3,373.5c64.5,8.6,113.3,11.5,158.7,12.1s42.4-34.2,5.3-39.5c-37.1-5.3-114.5-11.5-162.2-14.2
		L834.3,373.5z"/>
	<g>
		<circle id="nose1_1_" cx="623.7" cy="216.1" r="0.8"/>
		<circle id="nose0_1_" cx="623.7" cy="210.3" r="0.8"/>
		<circle id="nose3_1_" cx="623.7" cy="228.7" r="0.8"/>
		<circle id="rightNose0_1_" cx="613" cy="233.2" r="0.8"/>
		<circle id="rightNose1_1_" cx="618.2" cy="233.2" r="0.8"/>
		<circle id="nose2_1_" cx="623.7" cy="221.6" r="0.8"/>
		<circle id="nose4_1_" cx="623.7" cy="234" r="0.8"/>
		<circle id="leftNose0_1_" cx="634.1" cy="233.2" r="0.8"/>
		<circle id="leftNose1_1_" cx="629.3" cy="233.2" r="0.8"/>
		<path class="st13" d="M622.4,232.8c-1.2,0-4.6,1.6-5.8,5.2c-0.2,1.2,0.6,5.8,6,4.1c-0.1-1-4.7-1.1-4.5-3.7
			C618.4,236.6,620.1,236.6,622.4,232.8z"/>
	</g>
</g>
<g id="skeleton_1_" class="st17">
	<polygon class="st18" points="518.8,349.5 569.1,565.3 685.5,564.5 731.7,349.5 	"/>
	<polyline class="st18" points="517.8,349.5 415.1,349.5 251.8,355.8 	"/>
	<polyline class="st18" points="733.2,349.1 836.4,349.1 999.7,355.5 	"/>
	<polyline class="st18" points="569.1,565.3 575.5,725.5 575.5,933.5 	"/>
	<polyline class="st18" points="685.5,564.5 685.5,725.5 685.5,933.5 	"/>
	<polyline class="st18" points="624.5,170 604.7,172.5 592.2,182 583.6,196.1 581.1,205.4 580.3,217.1 580.3,226.6 581.1,248.3 
		587.9,268.3 599.5,280.8 609.5,287.5 624.5,290.7 639.3,287.9 649.3,281.2 660.9,268.6 667.7,248.6 668.5,227 668.5,217.4 
		667.7,205.7 665.2,196.5 657,182 644.4,172.5 624.5,170 	"/>
	<polyline class="st18" points="588.5,206.9 592.5,203.2 598.7,202.2 606,202.2 615.8,206.2 	"/>
	<polygon class="st18" points="594.7,215.1 599.9,211.4 606.2,211.4 611.4,215.6 606.2,216.6 599.9,217.4 	"/>
	<polyline class="st18" points="613,233.2 618.2,233.2 623.7,234 623.7,228.7 623.7,221.6 623.7,216.1 623.7,210.3 	"/>
	<polyline class="st18" points="660,206.5 656,203.6 649.7,202.1 642.4,202.5 632.4,205.7 	"/>
	<polygon class="st18" points="654.1,215.1 648.8,211.4 642.5,211.4 637.4,215.6 642.5,216.6 648.8,217.4 	"/>
	<polyline class="st18" points="634.1,233.2 629.1,233.2 623.7,234 	"/>
	<polygon class="st18" points="607,255.3 613.9,251.9 620.4,250.8 624.5,251.7 628.7,250.8 635.1,251.9 642,255.3 635.6,261.6 
		628.5,264.4 624.5,264.9 620.4,264.4 613.4,261.6 	"/>
	<polyline class="st18" points="607,255.3 610.6,255.6 620.6,254.8 624.5,255.3 628.5,254.8 638.4,255.6 642,255.3 	"/>
	<polyline class="st18" points="607,255.3 610.6,255.6 620.6,257.7 624.5,258.5 628.5,257.7 638.4,255.6 642,255.3 	"/>
	<circle id="rightShoulder" class="st19" cx="518.9" cy="349.2" r="8.2"/>
	<circle id="rightElbow" class="st19" cx="415.4" cy="349.3" r="8.2"/>
	<circle id="rightWrist" class="st19" cx="252" cy="355.7" r="8.2"/>
	<circle id="rightHip" class="st19" cx="569.2" cy="565" r="8.2"/>
	<circle id="rightKnee" class="st19" cx="575.6" cy="725.2" r="8.2"/>
	<circle id="rightAnkle" class="st19" cx="575.6" cy="933.2" r="8.2"/>
	<circle id="leftElbow" class="st19" cx="836.2" cy="348.9" r="8.2"/>
	<circle id="leftWrist" class="st19" cx="999.6" cy="355.2" r="8.2"/>
	<circle id="leftHip" class="st19" cx="685.6" cy="564.2" r="8.2"/>
	<circle id="leftKnee" class="st19" cx="685.6" cy="725.2" r="8.2"/>
	<circle id="leftAnkle" class="st19" cx="685.6" cy="933.2" r="8.2"/>
	<circle id="rightEye0" class="st19" cx="594.7" cy="215.1" r="0.8"/>
	<circle id="rightBrow1" class="st19" cx="592.5" cy="203.2" r="0.8"/>
	<circle id="rightBrow4" class="st19" cx="615.8" cy="206.2" r="0.8"/>
	<circle id="nose1" class="st19" cx="623.7" cy="216.1" r="0.8"/>
	<circle id="rightBrow3" class="st19" cx="606" cy="202.2" r="0.8"/>
	<circle id="rightEye1" class="st19" cx="599.9" cy="211.4" r="0.8"/>
	<circle id="rightBrow0" class="st19" cx="588.5" cy="206.9" r="0.8"/>
	<circle id="rightBrow2" class="st19" cx="598.7" cy="202.2" r="0.8"/>
	<circle id="rightEye5" class="st19" cx="599.9" cy="217.4" r="0.8"/>
	<circle id="rightEye2" class="st19" cx="606.2" cy="211.4" r="0.8"/>
	<circle id="rightEye3" class="st19" cx="611.4" cy="215.6" r="0.8"/>
	<circle id="nose0" class="st19" cx="623.7" cy="210.3" r="0.8"/>
	<circle id="nose3" class="st19" cx="623.7" cy="228.7" r="0.8"/>
	<circle id="rightNose0" class="st19" cx="613" cy="233.2" r="0.8"/>
	<circle id="rightMouthCorner" class="st19" cx="607" cy="255.3" r="0.8"/>
	<circle id="rightNose1" class="st19" cx="618.2" cy="233.2" r="0.8"/>
	<circle id="rightUpperLipTop0" class="st19" cx="613.9" cy="251.9" r="0.8"/>
	<circle id="nose2" class="st19" cx="623.7" cy="221.6" r="0.8"/>
	<circle id="nose4" class="st19" cx="623.7" cy="234" r="0.8"/>
	<circle id="upperLipTopMid" class="st19" cx="624.5" cy="251.7" r="0.8"/>
	<circle id="rightUpperLipTop1" class="st19" cx="620.4" cy="250.8" r="0.8"/>
	<path id="rightMiddleLip" class="st19" d="M610.6,254.8c0.4,0,0.8,0.4,0.8,0.8c0,0.4-0.4,0.8-0.8,0.8s-0.8-0.4-0.8-0.8
		S610.2,254.8,610.6,254.8z"/>
	<circle id="lowerLipBottomMid" class="st19" cx="624.5" cy="264.9" r="0.8"/>
	<circle id="upperLipBottomMid" class="st19" cx="624.5" cy="255.3" r="0.8"/>
	<circle id="lowerLipTopMid" class="st19" cx="624.5" cy="258.4" r="0.8"/>
	<circle id="rightUpperLipBottom1" class="st19" cx="620.6" cy="254.8" r="0.8"/>
	<circle id="rightLowerLipTop0" class="st19" cx="620.6" cy="257.7" r="0.8"/>
	<circle id="rightLowerLipBottom1" class="st19" cx="620.4" cy="264.4" r="0.8"/>
	<circle id="rightLowerLipBottom0" class="st19" cx="613.4" cy="261.6" r="0.8"/>
	<circle id="rightEye4" class="st19" cx="606.2" cy="216.6" r="0.8"/>
	<circle id="jawMid" class="st19" cx="624.5" cy="290.7" r="0.8"/>
	<circle id="rightJaw7" class="st19" cx="609.5" cy="287.5" r="0.8"/>
	<circle id="rightJaw6" class="st19" cx="599.5" cy="280.8" r="0.8"/>
	<circle id="rightJaw5" class="st19" cx="587.9" cy="268.3" r="0.8"/>
	<circle id="rightJaw4" class="st19" cx="581.1" cy="248.3" r="0.8"/>
	<circle id="rightJaw3" class="st19" cx="580.3" cy="226.6" r="0.8"/>
	<circle id="rightJaw2" class="st19" cx="580.3" cy="217.1" r="0.8"/>
	<circle id="rightJaw1" class="st19" cx="581.1" cy="205.4" r="0.8"/>
	<circle id="rightJaw0" class="st19" cx="583.6" cy="196.1" r="0.8"/>
	<circle id="topMid" class="st19" cx="624.7" cy="170" r="0.8"/>
	<circle id="leftTop0" class="st19" cx="644.4" cy="172.5" r="0.8"/>
	<circle id="leftTop1" class="st19" cx="657" cy="182" r="0.8"/>
	<circle id="leftEye0" class="st19" cx="654.3" cy="215.1" r="0.8"/>
	<circle id="leftBrow1" class="st19" cx="656.2" cy="203.6" r="0.8"/>
	<circle id="leftBrow4" class="st19" cx="632.6" cy="205.7" r="0.8"/>
	<circle id="leftBrow3" class="st19" cx="642.6" cy="202.5" r="0.8"/>
	<circle id="leftEye1" class="st19" cx="649.1" cy="211.4" r="0.8"/>
	<circle id="leftBrow0" class="st19" cx="660.2" cy="206.5" r="0.8"/>
	<circle id="leftBrow2" class="st19" cx="649.9" cy="202.1" r="0.8"/>
	<circle id="leftEye5" class="st19" cx="649.1" cy="217.4" r="0.8"/>
	<circle id="leftEye2" class="st19" cx="642.8" cy="211.4" r="0.8"/>
	<circle id="leftEye3" class="st19" cx="637.6" cy="215.6" r="0.8"/>
	<circle id="leftNose0" class="st19" cx="634.1" cy="233.2" r="0.8"/>
	<circle id="leftMouthCorner" class="st19" cx="642" cy="255.3" r="0.8"/>
	<circle id="leftNose1" class="st19" cx="629.3" cy="233.2" r="0.8"/>
	<circle id="leftUpperLipTop0" class="st19" cx="635.1" cy="251.9" r="0.8"/>
	<circle id="leftUpperLipTop1" class="st19" cx="628.7" cy="250.8" r="0.8"/>
	<path id="leftMiddleLip" class="st19" d="M638.4,254.8c0.4,0,0.8,0.4,0.8,0.8c0,0.4-0.4,0.8-0.8,0.8s-0.8-0.4-0.8-0.8
		S638,254.8,638.4,254.8z"/>
	<circle id="leftUpperLipBottom1" class="st19" cx="628.5" cy="254.8" r="0.8"/>
	<circle id="leftLowerLipTop0" class="st19" cx="628.5" cy="257.7" r="0.8"/>
	<circle id="leftLowerLipBottom1" class="st19" cx="628.7" cy="264.4" r="0.8"/>
	<circle id="leftLowerLipBottom0" class="st19" cx="635.6" cy="261.6" r="0.8"/>
	<circle id="leftEye4" class="st19" cx="642.8" cy="216.6" r="0.8"/>
	<circle id="leftJaw7" class="st19" cx="639.3" cy="287.9" r="0.8"/>
	<circle id="leftJaw6" class="st19" cx="649.3" cy="281.2" r="0.8"/>
	<circle id="leftJaw5" class="st19" cx="660.9" cy="268.6" r="0.8"/>
	<circle id="leftJaw4" class="st19" cx="667.7" cy="248.6" r="0.8"/>
	<circle id="leftJaw3" class="st19" cx="668.5" cy="227" r="0.8"/>
	<circle id="leftJaw2" class="st19" cx="668.5" cy="217.4" r="0.8"/>
	<circle id="leftJaw1" class="st19" cx="667.7" cy="205.7" r="0.8"/>
	<circle id="leftJaw0" class="st19" cx="665.2" cy="196.5" r="0.8"/>
	<circle id="rightTop0" class="st19" cx="604.8" cy="172.5" r="0.8"/>
	<circle id="rightTop1" class="st19" cx="592.2" cy="182" r="0.8"/>
	<circle id="leftShoulder" class="st19" cx="731.8" cy="349.2" r="8.2"/>
</g>
</svg>
